<svg width="24" height="32" viewBox="0 0 24 32" fill="none" xmlns="http://www.w3.org/2000/svg">
<g clip-path="url(#clip0_2_145)">
<path d="M3.41438 15.4125L12 6.83125L20.5875 15.4187C20.975 15.8062 21.4875 16 22 16C22.5125 16 23.0237 15.8047 23.4137 15.4141C24.195 14.6328 24.195 13.3672 23.4137 12.5859L13.4138 2.58594C12.6325 1.80469 11.3669 1.80469 10.5856 2.58594L0.585631 12.5859C-0.195619 13.3672 -0.195619 14.6328 0.585631 15.4141C1.36688 16.1953 2.63313 16.1938 3.41438 15.4125ZM13.4125 14.5875C12.6313 13.8062 11.3656 13.8062 10.5844 14.5875L0.584381 24.5875C-0.196869 25.3687 -0.196869 26.6344 0.584381 27.4156C1.36563 28.1969 2.63126 28.1969 3.41251 27.4156L12 18.8312L20.5875 27.4188C20.975 27.8063 21.4875 28 22 28C22.5125 28 23.0237 27.8047 23.4137 27.4141C24.195 26.6328 24.195 25.3672 23.4137 24.5859L13.4125 14.5875Z" fill="#3D3D3D"/>
</g>
<defs>
<clipPath id="clip0_2_145">
<rect width="24" height="32" fill="white"/>
</clipPath>
</defs>
</svg>
