<svg width="24" height="32" viewBox="0 0 24 32" fill="none" xmlns="http://www.w3.org/2000/svg">
<path d="M23.4125 19.4125L13.4125 29.4125C13.025 29.8063 12.5125 30 12 30C11.4875 30 10.9762 29.8047 10.5862 29.4141L0.586242 19.4141C-0.195007 18.6328 -0.195007 17.3672 0.586242 16.586C1.36749 15.8047 2.63311 15.8047 3.41436 16.586L9.99998 23.175V4.00002C9.99998 2.8944 10.8956 2.05627 11.9437 2.05627C12.9918 2.05627 14 2.8944 14 4.00002V23.175L20.5875 16.5875C21.3687 15.8063 22.6343 15.8063 23.4156 16.5875C24.1968 17.3688 24.1937 18.6313 23.4125 19.4125Z" fill="#3D3D3D"/>
</svg>
