<svg width="24" height="32" viewBox="0 0 24 32" fill="none" xmlns="http://www.w3.org/2000/svg">
<path d="M23.4125 15.4125C23.025 15.8062 22.5125 16 22 16C21.4875 16 20.9762 15.8047 20.5862 15.414L14 8.83122V28C14 29.1056 13.1044 29.9437 12.0562 29.9437C11.0081 29.9437 9.99999 29.1062 9.99999 28V8.83122L3.41437 15.4125C2.63312 16.1937 1.36749 16.1937 0.586243 15.4125C-0.195007 14.6312 -0.195007 13.3656 0.586243 12.5843L10.5862 2.58435C11.3675 1.8031 12.6331 1.8031 13.4144 2.58435L23.4144 12.5843C24.1937 13.3687 24.1937 14.6312 23.4125 15.4125Z" fill="#3D3D3D"/>
</svg>
