<svg width="28" height="32" viewBox="0 0 28 32" fill="none" xmlns="http://www.w3.org/2000/svg">
<path d="M27.4125 17.4125L17.4125 27.4125C17.025 27.8062 16.5125 28 16 28C15.4875 28 14.9763 27.8047 14.5863 27.414C13.805 26.6328 13.805 25.3672 14.5863 24.5859L21.175 18H2.00002C0.895647 18 0.00012207 17.1062 0.00012207 16C0.00012207 14.8937 0.895647 14 2.00002 14H21.175L14.5875 7.41247C13.8063 6.63122 13.8063 5.3656 14.5875 4.58435C15.3688 3.8031 16.6344 3.8031 17.4156 4.58435L27.4156 14.5843C28.1938 15.3687 28.1938 16.6312 27.4125 17.4125Z" fill="#3D3D3D"/>
</svg>
