<?xml version="1.0" encoding="utf-8"?>
<!-- Generator: Adobe Illustrator 26.0.3, SVG Export Plug-In . SVG Version: 6.00 Build 0)  -->
<svg version="1.1" id="レイヤー_1" xmlns="http://www.w3.org/2000/svg" xmlns:xlink="http://www.w3.org/1999/xlink" x="0px"
	 y="0px" viewBox="0 0 64 64" style="enable-background:new 0 0 64 64;" xml:space="preserve">
<style type="text/css">
	.st0{fill:#FFFFFF;}
</style>
<g transform="translate(-3297 -4330)">
	<path d="M3323,4330h12c14.4,0,26,11.6,26,26v12c0,14.4-11.6,26-26,26h-12c-14.4,0-26-11.6-26-26v-12
		C3297,4341.6,3308.6,4330,3323,4330z"/>
	<g>
		<path class="st0" d="M3307.5,4367.4h6.4v3.4h-10.4v-16.9h3.9V4367.4z"/>
		<path class="st0" d="M3320.5,4371.1c-3.7,0-6.5-2.3-6.5-7.4v-2.6c0-5.1,2.7-7.4,6.5-7.4c3.7,0,6.5,2.3,6.5,7.4v2.6
			C3326.9,4368.7,3324.2,4371.1,3320.5,4371.1z M3318,4363.7c0,2.8,0.9,4,2.5,4s2.5-1.2,2.5-4v-2.6c0-2.8-0.9-4-2.5-4
			s-2.5,1.2-2.5,4V4363.7z"/>
		<path class="st0" d="M3341,4361.9v1.8c0,5-2.3,7.4-6,7.4c-3.7,0-6.5-2.3-6.5-7.4v-2.3c0-5.4,2.7-7.7,6.5-7.7c3.6,0,5.6,2.2,6,5.5
			h-3.8c-0.2-1.1-0.9-2.1-2.3-2.1c-1.6,0-2.5,1.2-2.5,4v2.6c0,2.8,0.9,4,2.5,4c1.6,0,2.1-1,2.3-2.4h-2.2v-3.4H3341z"/>
		<path class="st0" d="M3349.1,4371.1c-3.7,0-6.5-2.3-6.5-7.4v-2.6c0-5.1,2.7-7.4,6.5-7.4c3.7,0,6.5,2.3,6.5,7.4v2.6
			C3355.6,4368.7,3352.9,4371.1,3349.1,4371.1z M3346.6,4363.7c0,2.8,0.9,4,2.5,4s2.5-1.2,2.5-4v-2.6c0-2.8-0.9-4-2.5-4
			s-2.5,1.2-2.5,4V4363.7z"/>
	</g>
</g>
</svg>
