<?xml version="1.0" encoding="utf-8"?>
<!-- Generator: Adobe Illustrator 26.0.3, SVG Export Plug-In . SVG Version: 6.00 Build 0)  -->
<svg version="1.1" id="レイヤー_1" xmlns="http://www.w3.org/2000/svg" xmlns:xlink="http://www.w3.org/1999/xlink" x="0px"
	 y="0px" viewBox="0 0 78 30" style="enable-background:new 0 0 78 30;" xml:space="preserve">
<g>
	<path d="M8.4,22.1h8.9v4.7H2.9V3.3h5.5V22.1z"/>
	<path d="M26.4,27.1c-5.2,0-9-3.2-9-10.2v-3.7c0-7.1,3.8-10.2,9-10.2s9,3.2,9,10.2v3.7C35.3,23.9,31.6,27.1,26.4,27.1z M22.9,16.9
		c0,3.8,1.2,5.5,3.5,5.5s3.5-1.7,3.5-5.5v-3.7c0-3.8-1.2-5.5-3.5-5.5s-3.5,1.7-3.5,5.5V16.9z"/>
	<path d="M54.9,14.4v2.5c0,7-3.2,10.2-8.4,10.2c-5.2,0-9-3.2-9-10.2v-3.2c0-7.5,3.8-10.7,9-10.7c4.9,0,7.7,3,8.4,7.6h-5.2
		c-0.2-1.5-1.2-2.9-3.2-2.9c-2.3,0-3.5,1.7-3.5,5.5v3.7c0,3.8,1.2,5.5,3.5,5.5c2.2,0,2.9-1.4,3.1-3.4h-3v-4.7H54.9z"/>
	<path d="M66.1,27.1c-5.2,0-9-3.2-9-10.2v-3.7C57.2,6.1,61,3,66.1,3c5.2,0,9,3.2,9,10.2v3.7C75.1,23.9,71.3,27.1,66.1,27.1z
		 M62.6,16.9c0,3.8,1.2,5.5,3.5,5.5c2.3,0,3.5-1.7,3.5-5.5v-3.7c0-3.8-1.2-5.5-3.5-5.5c-2.3,0-3.5,1.7-3.5,5.5V16.9z"/>
</g>
</svg>
