<svg width="32" height="32" viewBox="0 0 32 32" fill="none" xmlns="http://www.w3.org/2000/svg">
<path d="M28 4H4C1.79063 4 0 5.79063 0 8V24C0 26.2094 1.79063 28 4 28H28C30.2094 28 32 26.2094 32 24V8C32 5.79063 30.2062 4 28 4ZM4 7H28C28.5514 7 29 7.44863 29 8V9.385L18.575 18.0163C17.1256 19.2213 14.8662 19.2206 13.4206 18.0172L3 9.3875V8C3 7.45 3.44875 7 4 7ZM28 25H4C3.44863 25 3 24.5514 3 24V13.2937L11.5063 20.3813C12.7688 21.425 14.3625 22 16 22C17.6375 22 19.2344 21.4257 20.4981 20.3762L29 13.2937V24C29 24.55 28.55 25 28 25Z" fill="#3D3D3D"/>
</svg>
