<svg width="36" height="32" viewBox="0 0 36 32" fill="none" xmlns="http://www.w3.org/2000/svg">
<g clip-path="url(#clip0_1_65)">
<path d="M10 16C10 11.5813 13.5813 8 18 8C22.4188 8 26 11.5813 26 16C26 20.4187 22.4188 24 18 24C13.5813 24 10 20.4187 10 16ZM18 21C20.7625 21 23 18.7625 23 16C23 13.2375 20.7625 11 18 11C17.9563 11 17.9188 11 17.8188 11C17.9563 11.3187 18 11.6562 18 12C18 14.2062 16.2063 16 14 16C13.6563 16 13.3188 15.9563 13 15.8188C13 15.9188 13 15.9563 13 15.9438C13 18.7625 15.2375 21 18 21ZM5.96376 7.0375C8.90626 4.3025 12.95 2 18 2C23.05 2 27.0938 4.3025 30.0375 7.0375C32.9625 9.75 34.9188 12.9437 35.8438 15.2312C36.05 15.725 36.05 16.275 35.8438 16.7687C34.9188 19 32.9625 22.1937 30.0375 24.9625C27.0938 27.7 23.05 30 18 30C12.95 30 8.90626 27.7 5.96376 24.9625C3.03876 22.1937 1.08376 19 0.15382 16.7687C-0.0512734 16.275 -0.0512734 15.725 0.15382 15.2312C1.08376 12.9437 3.03876 9.75 5.96376 7.0375ZM18 5C13.925 5 10.575 6.85 8.00626 9.23125C5.60001 11.4687 3.93876 14.0688 3.09001 16C3.93876 17.875 5.60001 20.5312 8.00626 22.7687C10.575 25.15 13.925 27 18 27C22.075 27 25.425 25.15 27.9938 22.7687C30.4 20.5312 32.0063 17.875 32.9125 16C32.0063 14.0688 30.4 11.4687 27.9938 9.23125C25.425 6.85 22.075 5 18 5Z" fill="#3D3D3D"/>
</g>
<defs>
<clipPath id="clip0_1_65">
<rect width="36" height="32" fill="white"/>
</clipPath>
</defs>
</svg>
