<svg width="28" height="32" viewBox="0 0 28 32" fill="none" xmlns="http://www.w3.org/2000/svg">
<path d="M24 2C26.2062 2 28 3.79063 28 6V26C28 28.2062 26.2062 30 24 30H4C1.79063 30 0 28.2062 0 26V6C0 3.79063 1.79063 2 4 2H24ZM21.2375 13.2375C21.9187 12.5563 21.9187 11.4437 21.2375 10.7625C20.5562 10.0812 19.4438 10.0812 18.7625 10.7625L12 17.525L9.2375 14.7625C8.55625 14.0812 7.44375 14.0812 6.7625 14.7625C6.07937 15.4437 6.07937 16.5562 6.7625 17.2375L10.7625 21.2375C11.4437 21.9187 12.5563 21.9187 13.2375 21.2375L21.2375 13.2375Z" fill="#379FD9"/>
</svg>
