<svg width="24" height="32" viewBox="0 0 24 32" fill="none" xmlns="http://www.w3.org/2000/svg">
<path d="M21 0H3C1.39875 0 0 1.39875 0 3V29C0 30.6 1.39875 32 3 32H21C22.6013 32 24 30.6013 24 29V3C24 1.39875 22.6 0 21 0ZM4 13C4 12.45 4.45 12 5 12H7C7.55 12 8 12.45 8 13V15C8 15.55 7.55 16 7 16H5C4.45 16 4 15.55 4 15V13ZM4 19C4 18.45 4.45 18 5 18H7C7.55 18 8 18.45 8 19V21C8 21.55 7.55 22 7 22H5C4.45 22 4 21.55 4 21V19ZM14 27C14 27.5501 13.5501 28 13 28H5C4.45 28 4 27.55 4 27V25C4 24.45 4.45 24 5 24H13C13.5501 24 14 24.4499 14 25V27ZM14 21C14 21.5501 13.5501 22 13 22H11C10.45 22 10 21.55 10 21V19C10 18.45 10.45 18 11 18H13C13.55 18 14 18.45 14 19V21ZM14 15C14 15.55 13.55 16 13 16H11C10.45 16 10 15.55 10 15V13C10 12.45 10.45 12 11 12H13C13.55 12 14 12.45 14 13V15ZM20 27C20 27.5501 19.5501 28 19 28H17C16.4501 28 16 27.5501 16 27V25C16 24.4499 16.4501 24 17 24H19C19.5501 24 20 24.4499 20 25V27ZM20 21C20 21.5501 19.5501 22 19 22H17C16.4501 22 16 21.5501 16 21V19C16 18.45 16.45 18 17 18H19C19.55 18 20 18.45 20 19V21ZM20 15C20 15.55 19.55 16 19 16H17C16.45 16 16 15.55 16 15V13C16 12.45 16.45 12 17 12H19C19.55 12 20 12.45 20 13V15ZM20 9C20 9.55 19.55 10 19 10H5C4.45 10 4 9.55 4 9V5C4 4.45 4.45 4 5 4H19C19.55 4 20 4.45 20 5V9Z" fill="#3D3D3D"/>
</svg>
