<svg width="40" height="32" viewBox="0 0 40 32" fill="none" xmlns="http://www.w3.org/2000/svg">
<g clip-path="url(#clip0_1_67)">
<path d="M9.41874 5.79811C12.1875 3.64186 15.7375 1.99999 20 1.99999C25.05 1.99999 29.0937 4.30249 32.0375 7.03749C34.9625 9.74999 36.9187 12.9437 37.8437 15.2312C38.05 15.725 38.05 16.275 37.8437 16.7687C37.0062 18.7875 35.325 21.6312 32.85 24.1687L39.425 29.3187C40.075 29.8312 40.1937 30.775 39.6812 31.425C39.1687 32.075 38.225 32.1937 37.575 31.6812L0.574739 2.68061C-0.0772612 2.16936 -0.191574 1.22686 0.319489 0.574739C0.830614 -0.0772612 1.77311 -0.191574 2.42561 0.319489L9.41874 5.79811ZM11.8625 7.71874L14.7375 9.96874C16.1437 8.74374 17.9875 7.99999 20 7.99999C24.4187 7.99999 28 11.5812 28 16C28 17.325 27.6812 18.5687 27.1125 19.6687L30.475 22.3062C32.5687 20.175 34.1187 17.6937 34.9125 16C34.0062 14.0687 32.4 11.4687 29.9937 9.23124C27.425 6.84999 24.075 4.94374 20 4.94374C16.8437 4.94374 14.0687 6.10811 11.8625 7.71874ZM24.6812 17.7625C24.8875 17.2125 25 16.6187 25 15.9437C25 13.2375 22.7625 10.9437 20 10.9437C19.9562 10.9437 19.9187 11 19.8187 11C19.9562 11.3187 20 11.6562 20 11.9437C20 12.6375 19.85 13.2375 19.5875 13.7687L24.6812 17.7625ZM25.2687 25.9062L27.8875 27.9687C25.6187 29.1937 22.9875 30 20 30C14.95 30 10.9062 27.7 7.96249 24.9625C5.03874 22.1937 3.08374 19 2.15374 16.7687C1.94874 16.275 1.94874 15.725 2.15374 15.2312C2.74999 13.8 3.76811 11.95 5.19311 10.0937L7.54999 11.95C6.38124 13.4062 5.60999 14.85 5.09061 15.9437C5.93874 17.875 7.59999 20.5312 10.0062 22.7687C12.575 25.15 15.925 27 20 27C21.9187 27 23.675 26.5875 25.2687 25.9062ZM12 15.9437C12 15.8187 12.0062 15.6437 12.0187 15.4687L15.525 18.2312C16.1812 19.55 17.4062 20.5375 18.875 20.8187L22.3875 23.6375C21.6312 23.8187 20.8312 24 19.9437 24C15.5812 24 11.9437 20.4187 11.9437 15.9437H12Z" fill="#3D3D3D"/>
</g>
<defs>
<clipPath id="clip0_1_67">
<rect width="40" height="32" fill="white"/>
</clipPath>
</defs>
</svg>
