<svg width="32" height="32" viewBox="0 0 32 32" fill="none" xmlns="http://www.w3.org/2000/svg">
<g clip-path="url(#clip0_1_69)">
<path d="M31.35 0.261711C30.8754 -0.0605388 30.2619 -0.0879138 29.76 0.195274L0.757502 16.6938C0.261502 16.9813 -0.0314796 17.5188 0.00269542 18.0876C0.0368767 18.6579 0.392321 19.1601 0.918946 19.3807L10.5002 23.4045V30.4982C10.5002 31.047 10.8 31.5507 11.2814 31.8145C11.5063 31.9376 11.75 32.0001 11.9438 32.0001C12.226 32.0001 12.5086 31.92 12.7556 31.7618L19.7056 27.2956L25.8656 29.8831C26.0521 29.9612 26.2494 30.0003 26.4467 30.0003C26.7016 30.0003 26.9555 29.9358 27.1829 29.8069C27.5863 29.5803 27.8629 29.1781 27.9298 28.7206L31.9298 1.72065C32.0688 1.15259 31.8188 0.585899 31.35 0.261711ZM23.0813 7.45008L11.3875 20.5063L4.88938 17.7938L23.0813 7.45008ZM13.4438 27.7501V24.6651L16.3469 25.8845L13.4438 27.7501ZM25.3 26.3688L14.2625 21.732L28.3 6.13821L25.3 26.3688Z" fill="#3D3D3D"/>
</g>
<defs>
<clipPath id="clip0_1_69">
<rect width="32" height="32" fill="white"/>
</clipPath>
</defs>
</svg>
