<svg width="32" height="32" viewBox="0 0 32 32" fill="none" xmlns="http://www.w3.org/2000/svg">
<path d="M23.3188 1.56063C25.075 -0.196683 27.925 -0.196683 29.6812 1.56063L30.4375 2.31813C32.1938 4.07563 32.1938 6.925 30.4375 8.68125L18.1125 21.0125C17.5687 21.55 16.9 21.9437 16.1625 22.1562L9.9125 23.9437C9.3875 24.0937 8.825 23.9437 8.4375 23.5062C8.05625 23.175 7.90625 22.6125 8.05625 22.0875L9.84375 15.8375C10.0563 15.1 10.45 14.4312 10.9875 13.8875L23.3188 1.56063ZM27.5063 3.68188C26.975 3.09625 26.025 3.09625 25.4375 3.68188L23.6187 5.5L26.5 8.38125L28.3188 6.50625C28.9063 5.975 28.9063 5.025 28.3188 4.43938L27.5063 3.68188ZM12.7312 16.6625L11.6812 20.3187L15.3375 19.2687C15.5875 19.2 15.8063 19.0687 15.9875 18.8875L24.3813 10.5L21.5 7.61875L13.1125 16.0125C12.9313 16.1937 12.8 16.4125 12.7312 16.6625ZM12.5 4C13.3313 4 14 4.67188 14 5.5C14 6.33125 13.3313 7 12.5 7H5.5C4.11937 7 3 8.11875 3 9.5V26.5C3 27.8812 4.11937 29 5.5 29H22.5C23.8813 29 25 27.8812 25 26.5V19.5C25 18.6687 25.6687 18 26.5 18C27.3313 18 28 18.6687 28 19.5V26.5C28 29.5375 25.5375 32 22.5 32H5.5C2.4625 32 0 29.5375 0 26.5V9.5C0 6.4625 2.4625 4 5.5 4H12.5Z" fill="#3D3D3D"/>
</svg>
