<svg width="28" height="32" viewBox="0 0 28 32" fill="none" xmlns="http://www.w3.org/2000/svg">
<path d="M0 6C0 3.79063 1.79063 2 4 2H24C26.2062 2 28 3.79063 28 6V26C28 28.2062 26.2062 30 24 30H4C1.79063 30 0 28.2062 0 26V6ZM3 6V26C3 26.55 3.4475 27 4 27H24C24.55 27 25 26.55 25 26V6C25 5.4475 24.55 5 24 5H4C3.4475 5 3 5.4475 3 6Z" fill="#BCBCBC"/>
<path d="M13.2375 21.2375C12.5563 21.9187 11.4438 21.9187 10.7625 21.2375L6.76253 17.2375C6.0794 16.5562 6.0794 15.4437 6.76253 14.7625C7.44378 14.0812 8.55628 14.0812 9.23753 14.7625L12 17.525L18.7625 10.7625C19.4438 10.0812 20.5563 10.0812 21.2375 10.7625C21.9188 11.4437 21.9188 12.5562 21.2375 13.2375L13.2375 21.2375Z" fill="#24A04E"/>
</svg>
