<svg width="32" height="32" viewBox="0 0 32 32" fill="none" xmlns="http://www.w3.org/2000/svg">
<path d="M16.0037 2C8.28285 2 2 7.1568 2 13.5002C2 19.1794 6.97761 23.9406 13.7103 24.8436C15.3474 25.2019 15.163 25.8063 14.7943 28.0377C14.7353 28.3959 14.5141 29.4333 16.0037 28.7989C17.5007 28.1646 24.0637 23.9929 27.006 20.5749C29.034 18.3137 30 16.0301 30 13.4927C30.0074 7.1568 23.7245 2 16.0037 2ZM11.0334 16.8659C11.0334 17.0226 10.9155 17.142 10.7606 17.142H6.83013C6.75639 17.142 6.69002 17.1047 6.6384 17.0674C6.58678 17.0152 6.56465 16.9555 6.56465 16.8734V10.7016C6.56465 10.5449 6.68264 10.4255 6.8375 10.4255H7.81828C7.97313 10.4255 8.09112 10.5449 8.09112 10.7016V15.6047H10.7606C10.9081 15.6047 11.0261 15.7316 11.0261 15.8808V16.8659H11.0334ZM13.4006 16.8734C13.4006 17.0301 13.2826 17.1495 13.1277 17.1495H12.147C11.9921 17.1495 11.8741 17.0301 11.8741 16.8734V10.7016C11.8741 10.5449 11.9921 10.4255 12.147 10.4255H13.1277C13.2826 10.4255 13.4006 10.5524 13.4006 10.7016V16.8734ZM20.1628 16.8734C20.1628 17.0301 20.0448 17.1495 19.8899 17.1495H18.9091C18.8133 17.1495 18.7322 17.0973 18.6879 17.0376L15.8931 13.2166V16.8808C15.8931 17.0375 15.7751 17.157 15.6202 17.157H14.6394C14.4846 17.157 14.3666 17.0375 14.3666 16.8808V10.7016C14.3666 10.5449 14.4846 10.4255 14.6394 10.4255H15.6128C15.7013 10.4255 15.7898 10.4703 15.8341 10.5449L18.6289 14.3659V10.7016C18.6289 10.5449 18.7469 10.4255 18.9018 10.4255H19.8825C20.0374 10.418 20.1628 10.5449 20.1628 10.6942V16.8734ZM25.5902 11.6867C25.5902 11.8434 25.4722 11.9628 25.3173 11.9628H22.6479V13.0076H25.3173C25.4722 13.0076 25.5902 13.127 25.5902 13.2838V14.2838C25.5902 14.4405 25.4722 14.5599 25.3173 14.5599H22.6479V15.6047H25.3173C25.4722 15.6047 25.5902 15.7241 25.5902 15.8808V16.8734C25.5902 17.0301 25.4722 17.1495 25.3173 17.1495H21.3943C21.2394 17.1495 21.1214 17.0226 21.1214 16.8734V10.7016C21.1214 10.5449 21.2468 10.4255 21.3943 10.4255H25.3173C25.4648 10.4255 25.5828 10.5524 25.5902 10.7016V11.6867Z" fill="#3D3D3D"/>
</svg>
