<svg width="32" height="32" viewBox="0 0 32 32" fill="none" xmlns="http://www.w3.org/2000/svg">
<path d="M31.3313 8.44226C30.9633 7.08731 29.879 6.02019 28.5022 5.65805C26.0067 5 16 5 16 5C16 5 5.99337 5 3.49781 5.65805C2.12103 6.02025 1.0367 7.08731 0.668671 8.44226C0 10.8982 0 16.0222 0 16.0222C0 16.0222 0 21.1463 0.668671 23.6022C1.0367 24.9572 2.12103 25.9798 3.49781 26.3419C5.99337 27 16 27 16 27C16 27 26.0066 27 28.5022 26.3419C29.879 25.9798 30.9633 24.9572 31.3313 23.6022C32 21.1463 32 16.0222 32 16.0222C32 16.0222 32 10.8982 31.3313 8.44226V8.44226ZM12.7272 20.6745V11.37L21.0909 16.0223L12.7272 20.6745V20.6745Z" fill="#3D3D3D"/>
</svg>
