<svg width="28" height="32" viewBox="0 0 28 32" fill="none" xmlns="http://www.w3.org/2000/svg">
<path d="M4.82815 16L13.4157 7.41247C14.1969 6.63122 14.1969 5.3656 13.4157 4.58435C12.6344 3.8031 11.3688 3.8031 10.5875 4.58435L0.587525 14.5843C-0.193726 15.3656 -0.193726 16.6312 0.587525 17.4125L10.5875 27.4125C10.975 27.8062 11.4875 28 12 28C12.5125 28 13.0238 27.8047 13.4138 27.414C14.195 26.6328 14.195 25.3672 13.4138 24.5859L4.82815 16ZM16.8313 16L25.4188 7.41247C26.2 6.63122 26.2 5.3656 25.4188 4.58435C24.6375 3.8031 23.3719 3.8031 22.5907 4.58435L12.5907 14.5843C11.8094 15.3656 11.8094 16.6312 12.5907 17.4125L22.5907 27.4125C22.975 27.8062 23.4875 28 24 28C24.5125 28 25.0238 27.8047 25.4138 27.414C26.195 26.6328 26.195 25.3672 25.4138 24.5859L16.8313 16Z" fill="#3D3D3D"/>
</svg>
