<svg width="24" height="32" viewBox="0 0 24 32" fill="none" xmlns="http://www.w3.org/2000/svg">
<path d="M10.5875 17.4125C10.975 17.8063 11.4875 18 12 18C12.5125 18 13.0237 17.8047 13.4137 17.4141L23.4137 7.41406C24.195 6.63281 24.195 5.36719 23.4137 4.58594C22.6325 3.80469 21.3669 3.80469 20.5856 4.58594L12 13.175L3.41437 4.58625C2.63312 3.805 1.36749 3.805 0.586243 4.58625C-0.195007 5.3675 -0.195007 6.63312 0.586243 7.41437L10.5875 17.4125ZM20.5875 16.5875L12 25.175L3.41437 16.5875C2.63312 15.8062 1.36749 15.8062 0.586243 16.5875C-0.195007 17.3687 -0.195007 18.6344 0.586243 19.4156L10.5862 29.4156C10.975 29.8062 11.4875 30 12 30C12.5125 30 13.0237 29.8047 13.4137 29.4141L23.4137 19.4141C24.195 18.6328 24.195 17.3672 23.4137 16.5859C22.6325 15.8047 21.3687 15.8062 20.5875 16.5875Z" fill="#3D3D3D"/>
</svg>
