<svg width="28" height="32" viewBox="0 0 28 32" fill="none" xmlns="http://www.w3.org/2000/svg">
<path d="M15.4125 14.5875L5.41248 4.58752C4.63123 3.80627 3.3656 3.80627 2.58435 4.58752C1.8031 5.36877 1.8031 6.6344 2.58435 7.41565L11.175 16L2.58748 24.5875C1.80623 25.3688 1.80623 26.6344 2.58748 27.4157C2.97685 27.8063 3.4881 28 3.99998 28C4.51185 28 5.02373 27.8047 5.41373 27.4141L15.4137 17.4141C16.1937 16.6313 16.1937 15.3688 15.4125 14.5875ZM27.4125 14.5875L17.4125 4.58752C16.6312 3.80627 15.3656 3.80627 14.5844 4.58752C13.8031 5.36877 13.8031 6.6344 14.5844 7.41565L23.175 16L14.5875 24.5875C13.8062 25.3688 13.8062 26.6344 14.5875 27.4157C14.975 27.8063 15.4875 28 16 28C16.5125 28 17.0237 27.8047 17.4137 27.4141L27.4137 17.4141C28.1937 16.6313 28.1937 15.3688 27.4125 14.5875Z" fill="#3D3D3D"/>
</svg>
