<svg width="28" height="32" viewBox="0 0 28 32" fill="none" xmlns="http://www.w3.org/2000/svg">
<path d="M27.9437 16C27.9437 17.1063 27.1062 18 26 18H6.83124L13.4187 24.5875C14.2 25.3687 14.2 26.6344 13.4187 27.4156C13.025 27.8062 12.5125 28 12 28C11.4875 28 10.9762 27.8047 10.5862 27.4141L0.586243 17.4141C-0.195007 16.6328 -0.195007 15.3672 0.586243 14.5859L10.5862 4.58594C11.3675 3.80469 12.6331 3.80469 13.4144 4.58594C14.1956 5.36719 14.1956 6.63281 13.4144 7.41406L6.83124 14H26C27.1062 14 27.9437 14.8937 27.9437 16Z" fill="#3D3D3D"/>
</svg>
