<?xml version="1.0" encoding="utf-8"?>
<!-- Generator: Adobe Illustrator 26.0.3, SVG Export Plug-In . SVG Version: 6.00 Build 0)  -->
<svg version="1.1" id="レイヤー_1" xmlns="http://www.w3.org/2000/svg" xmlns:xlink="http://www.w3.org/1999/xlink" x="0px"
	 y="0px" viewBox="0 0 448 512" style="enable-background:new 0 0 448 512;" xml:space="preserve">
<path d="M223.3,78.4c-104.7,0-189.9,69.1-189.9,154.1c0,76.1,67.5,139.9,158.8,152c22.2,4.8,19.7,12.9,14.7,42.8
	c-0.8,4.8-3.8,18.7,16.4,10.2c20.3-8.5,109.3-64.4,149.2-110.2c27.5-30.3,40.6-60.9,40.6-94.9C413.2,147.5,328,78.4,223.3,78.4z
	 M155.9,277.6c0,2.1-1.6,3.7-3.7,3.7H98.9c-1,0-1.9-0.5-2.6-1c-0.7-0.7-1-1.5-1-2.6V195c0-2.1,1.6-3.7,3.7-3.7h13.3
	c2.1,0,3.7,1.6,3.7,3.7v65.7h36.2c2,0,3.6,1.7,3.6,3.7V277.6z M188,277.7c0,2.1-1.6,3.7-3.7,3.7H171c-2.1,0-3.7-1.6-3.7-3.7V195
	c0-2.1,1.6-3.7,3.7-3.7h13.3v0c2.1,0,3.7,1.7,3.7,3.7V277.7z M279.7,277.7c0,2.1-1.6,3.7-3.7,3.7h-13.3c-1.3,0-2.4-0.7-3-1.5
	l-37.9-51.2v49.1c0,2.1-1.6,3.7-3.7,3.7h-13.3c-2.1,0-3.7-1.6-3.7-3.7v-82.8c0-2.1,1.6-3.7,3.7-3.7h13.2c1.2,0,2.4,0.6,3,1.6
	l37.9,51.2v-49.1c0-2.1,1.6-3.7,3.7-3.7h13.3c2.1-0.1,3.8,1.6,3.8,3.6V277.7z M353.3,208.2c0,2.1-1.6,3.7-3.7,3.7h-36.2v14h36.2
	c2.1,0,3.7,1.6,3.7,3.7V243c0,2.1-1.6,3.7-3.7,3.7h-36.2v14h36.2c2.1,0,3.7,1.6,3.7,3.7v13.3c0,2.1-1.6,3.7-3.7,3.7h-53.2
	c-2.1,0-3.7-1.7-3.7-3.7V195c0-2.1,1.7-3.7,3.7-3.7h53.2c2,0,3.6,1.7,3.7,3.7V208.2z"/>
</svg>
