<svg width="24" height="32" viewBox="0 0 24 32" fill="none" xmlns="http://www.w3.org/2000/svg">
<path d="M7.00625 28.3937C7.00625 28.7873 7.11975 29.1712 7.3365 29.4994L8.40775 31.105C8.73588 31.5972 9.48088 31.9975 10.0728 31.9975H13.9271C14.517 31.9975 15.2621 31.5974 15.5903 31.105L16.6577 29.5C16.8414 29.2226 16.992 28.7269 16.992 28.3937L17 25.9438H7L7.00625 28.3937ZM12 0C5.62625 0.0200188 1 5.18563 1 10.9438C1 13.7175 2.0275 16.2462 3.7225 18.1812C4.75563 19.3587 6.36875 21.8206 6.98625 23.8969C6.98821 23.9125 6.99211 23.9292 6.99406 23.9458H17.0066C17.0085 23.9292 17.0124 23.9135 17.0144 23.8969C17.6316 21.8206 19.245 19.3587 20.2781 18.1812C21.975 16.3 23 13.775 23 10.9438C23 4.925 18.075 0.00024375 12 0ZM18.025 16.2563C17.0462 17.3719 15.835 19.15 14.9594 20.9994H9.04625C8.17063 19.15 6.95937 17.3719 5.98125 16.2569C4.7025 14.8 4 12.8813 4 10.9438C4 7.08125 7.00625 3.01562 11.9438 3C16.4125 3 20 6.5875 20 10.9438C20 12.8813 19.3 14.8 18.025 16.2563ZM11 5C8.24375 5 6 7.24375 6 10C6 10.5527 6.44725 11 7 11C7.55275 11 8 10.55 8 10C8 8.34563 9.34563 7 11 7C11.5527 7 12 6.55325 12 6.00063C12 5.448 11.55 5 11 5Z" fill="#3D3D3D"/>
</svg>
