<svg width="32" height="32" viewBox="0 0 32 32" fill="none" xmlns="http://www.w3.org/2000/svg">
<path d="M10 26H6C4.89562 26 4 25.1044 4 24V8C4 6.89562 4.89562 6 6 6H10C11.1044 6 12 5.10438 12 4C12 2.89562 11.1063 2 10 2H6C2.68625 2 0 4.68625 0 8V24C0 27.3138 2.68625 30 6 30H10C11.1044 30 12 29.1044 12 28C12 26.8956 11.1063 26 10 26ZM31.4125 14.5875L23.4125 6.5875C22.6306 5.80563 21.365 5.80688 20.5844 6.5875C19.8031 7.36875 19.8031 8.63437 20.5844 9.41562L25.175 14H12C10.8937 14 10 14.8937 10 16C10 17.1063 10.8944 18 12 18H25.175L20.5888 22.5863C19.8075 23.3675 19.8075 24.6331 20.5888 25.4144C21.37 26.1956 22.6356 26.1956 23.4169 25.4144L31.4169 17.4144C32.1938 16.6313 32.1938 15.3687 31.4125 14.5875Z" fill="#3D3D3D"/>
</svg>
