<svg width="32" height="32" viewBox="0 0 32 32" fill="none" xmlns="http://www.w3.org/2000/svg">
<path d="M29 1C27.8956 1 27 1.89437 27 3V7.63062C24.5062 4.1575 20.4625 2 16 2C10.0938 2 4.91188 5.77125 3.09875 11.3875C2.75888 12.4381 3.33606 13.5675 4.38688 13.905C5.4425 14.2487 6.56687 13.6667 6.90562 12.6181C8.18125 8.65625 11.8375 6 16 6C19.1562 6 22.0162 7.53437 23.775 10H21C19.8956 10 19 10.8944 19 12C19 13.1056 19.8956 14 21 14H29C30.1044 14 31 13.1056 31 12V3C31 1.89437 30.1063 1 29 1ZM27.6125 18.1C26.555 17.7601 25.4325 18.3383 25.0938 19.3869C23.8188 23.3438 20.1625 26 16 26C12.8438 26 9.98438 24.4656 8.225 22H11C12.1044 22 13 21.1056 13 20C13 18.8944 12.1044 18 11 18H3C1.89562 18 1 18.8944 1 20V29C1 30.1056 1.89562 31 3 31C4.10438 31 5 30.1056 5 29V24.3694C7.49375 27.8438 11.5375 30 15.9438 30C21.8469 30 27.0312 26.2287 28.8438 20.6125C29.2438 19.5625 28.6625 18.3813 27.6125 18.1Z" fill="#3D3D3D"/>
</svg>
