<svg width="32" height="32" viewBox="0 0 32 32" fill="none" xmlns="http://www.w3.org/2000/svg">
<path d="M6 2.0025H2C0.895625 2.0025 0 2.8975 0 3.94625V17.89C0 18.9944 0.895625 19.8337 2 19.8337H6C7.10438 19.8337 8 18.9381 8 17.89V4.00187C8 2.8975 7.10625 2.0025 6 2.0025ZM29.2062 15.0125C29.6937 14.4812 30 13.775 30 12.9937C30 11.5269 28.9456 10.3112 27.5537 10.0506C27.8312 9.6 28 9.06875 28 8.44375C28 7.11125 27.125 5.995 25.9219 5.60437C25.9688 5.445 26 5.22563 26 4.99875C26 3.34188 24.6562 2 23 2H19.3319C17.1687 2 15.0644 2.70125 13.3337 3.99875L11.2 5.59812C10.4437 6.16438 10 7.05625 10 7.94375L10.0067 17.9438C10.0067 17.9438 10.0053 17.9423 10.0067 17.9438C10.0111 18.8181 10.3894 19.69 11.1261 20.2787L12.1448 21.0931C17.2625 25.2437 14.9625 30 18.9062 30C20.8412 30 21.9981 28.4675 21.9981 26.9931C21.9981 26.0463 21.2631 23.3606 19.8406 20.9919H29C30.6575 20.9919 32 19.65 32 17.9931C32 16.4063 30.7625 15.1187 29.2062 15.0125Z" fill="#3D3D3D"/>
</svg>
