<svg width="32" height="32" viewBox="0 0 32 32" fill="none" xmlns="http://www.w3.org/2000/svg">
<g clip-path="url(#clip0_2_269)">
<path d="M31.6437 26.0625L18.3125 3.3125C17.2919 1.5625 14.7162 1.5625 13.6887 3.3125L0.363721 26.0625C-0.661905 27.8062 0.615534 30 2.67122 30H29.3337C31.3812 30 32.6625 27.8125 31.6437 26.0625ZM14.5 10.5C14.5 9.67188 15.1719 9 16 9C16.8281 9 17.5 9.675 17.5 10.5V18.5C17.5 19.3281 16.8281 20 16.0562 20C15.2844 20 14.5 19.3313 14.5 18.5V10.5ZM16 26C14.915 26 14.035 25.12 14.035 24.035C14.035 22.95 14.9144 22.07 16 22.07C17.0856 22.07 17.965 22.95 17.965 24.035C17.9625 25.1187 17.0875 26 16 26Z" fill="#CF6666"/>
</g>
<defs>
<clipPath id="clip0_2_269">
<rect width="32" height="32" fill="white"/>
</clipPath>
</defs>
</svg>
