<svg width="28" height="32" viewBox="0 0 28 32" fill="none" xmlns="http://www.w3.org/2000/svg">
<path d="M24 22.0001V26.0001C24 27.1044 23.1044 28.0001 22 28.0001H6C4.89562 28.0001 4 27.1044 4 26.0001V22.0001C4 20.8957 3.10438 20.0001 2 20.0001C0.895625 20.0001 0 20.8957 0 22.0001V26.0001C0 29.3138 2.68625 32.0001 6 32.0001H22C25.3138 32.0001 28 29.3138 28 26.0001V22.0001C28 20.8957 27.1044 20.0001 26 20.0001C24.8956 20.0001 24 20.8938 24 22.0001ZM12.5875 0.585997L4.5875 8.586C3.80563 9.36787 3.80688 10.6335 4.5875 11.4141C5.36875 12.1954 6.63438 12.1954 7.41563 11.4141L12 6.83131V20.0001C12 21.1057 12.8944 22.0001 14 22.0001C15.1056 22.0001 16 21.1057 16 20.0001V6.83131L20.5863 11.4176C21.3675 12.1988 22.6331 12.1988 23.4144 11.4176C24.1956 10.6363 24.1956 9.37068 23.4144 8.58943L15.4144 0.589434C14.6313 -0.195253 13.3687 -0.195253 12.5875 0.585997Z" fill="#3D3D3D"/>
</svg>
