<svg width="28" height="32" viewBox="0 0 28 32" fill="none" xmlns="http://www.w3.org/2000/svg">
<g clip-path="url(#clip0_2_211)">
<path d="M16 2V3.1175C20.5313 3.83688 24 7.7625 24 12.5V14.5875C24 17.425 24.9688 20.1812 26.7375 22.4L27.6688 23.5625C28.0313 24.0125 28.1 24.6312 27.85 25.15C27.6 25.6687 27.075 26 26.5 26H1.50001C0.923136 26 0.397824 25.6687 0.148074 25.15C-0.101739 24.6312 -0.0314885 24.0125 0.328761 23.5625L1.26064 22.4C3.03376 20.1812 4.00001 17.425 4.00001 14.5875V12.5C4.00001 7.7625 7.46876 3.83688 12 3.1175V2C12 0.895625 12.8938 0 14 0C15.1063 0 16 0.895625 16 2ZM13.5 6C9.91251 6 7.00001 8.9125 7.00001 12.5V14.5875C7.00001 17.5812 6.13251 20.5 4.51939 23H23.4813C21.8688 20.5 21 17.5812 21 14.5875V12.5C21 8.9125 18.0875 6 14.5 6H13.5ZM18 28C18 29.0063 17.5813 30.0812 16.8313 30.8312C16.0813 31.5812 15.0063 32 14 32C12.9375 32 11.9188 31.5812 11.1688 30.8312C10.4188 30.0812 10 29.0063 10 28H18Z" fill="#3D3D3D"/>
</g>
<defs>
<clipPath id="clip0_2_211">
<rect width="28" height="32" fill="white"/>
</clipPath>
</defs>
</svg>
