<svg width="32" height="32" viewBox="0 0 32 32" fill="none" xmlns="http://www.w3.org/2000/svg">
<path d="M30 11.225C31.1625 11.775 32 13.2562 32 15C32 16.7437 31.1625 18.225 30 18.775V28C30 28.8062 29.5125 29.5375 28.7625 29.85C28.0188 30.1562 27.1562 29.9875 26.5875 29.4125L23.8563 26.6312C20.8563 23.6312 16.7875 22 12.5437 22H12V30C12 31.1062 11.1063 32 10 32H6C4.89562 32 4 31.1062 4 30V22C1.79063 22 0 20.2062 0 18V12C0 9.79374 1.79063 7.99999 4 7.99999H12.5437C16.7875 7.99999 20.8563 6.31249 23.8563 3.31374L26.5875 0.585805C27.1562 0.0138366 28.0188 -0.157257 28.7625 0.152305C29.5125 0.461868 30 1.19124 30 1.99999V11.225ZM12.5437 12H12V18H12.5437C17.5312 18 22.325 19.8625 26 23.2062V6.79374C22.325 10.1375 17.5312 12 12.5437 12Z" fill="#3D3D3D"/>
</svg>
