<svg width="32" height="32" viewBox="0 0 32 32" fill="none" xmlns="http://www.w3.org/2000/svg">
<path d="M16 0C7.1625 0 0 7.1625 0 16C0 24.8375 7.1625 32 16 32C24.8375 32 32 24.8375 32 16C32 7.1625 24.8375 0 16 0ZM16 25C14.875 25 14 24.125 14 23C14 21.875 14.8188 21 16 21C17.0688 21 18 21.875 18 23C18 24.125 17.0688 25 16 25ZM20.3188 16.125L17.5 17.875V18C17.5 18.8125 16.8125 19.5 16 19.5C15.1875 19.5 14.5 18.8125 14.5 18V17C14.5 16.5 14.75 16 15.25 15.6875L18.8125 13.5625C19.25 13.3125 19.5 12.875 19.5 12.375C19.5 11.625 18.8188 11 18.0688 11H14.875C14.0688 11 13.5 11.625 13.5 12.375C13.5 13.1875 12.8125 13.875 12 13.875C11.1875 13.875 10.5 13.1875 10.5 12.375C10.5 9.9375 12.4375 8 14.8188 8H18.0125C20.5625 8 22.5 9.9375 22.5 12.375C22.5 13.875 21.6875 15.3125 20.3188 16.125Z" fill="#CF6666"/>
</svg>
