<svg width="32" height="32" viewBox="0 0 32 32" fill="none" xmlns="http://www.w3.org/2000/svg">
<path d="M16 0C7.1625 0 0 7.1625 0 16C0 24.8375 7.1625 32 16 32C24.8375 32 32 24.8375 32 16C32 7.1625 24.8375 0 16 0ZM14.5 9.5C14.5 8.675 15.175 8 16 8C16.825 8 17.5 8.67188 17.5 9.5V17.5C17.5 18.3281 16.8281 19 16 19C15.1719 19 14.5 18.3313 14.5 17.5V9.5ZM16 25C14.915 25 14.035 24.12 14.035 23.035C14.035 21.95 14.9144 21.07 16 21.07C17.0856 21.07 17.965 21.95 17.965 23.035C17.9625 24.1187 17.0875 25 16 25Z" fill="#CF6666"/>
</svg>
