<svg width="28" height="32" viewBox="0 0 28 32" fill="none" xmlns="http://www.w3.org/2000/svg">
<g clip-path="url(#clip0_2_237)">
<path d="M24.5687 25.1562C26.7012 22.6988 28.0018 19.5013 28.0018 16C28.0018 8.28125 21.7206 2 14.0581 2C6.39561 2 0 8.28125 0 16C0 23.7188 6.28124 30 13.9437 30C16.7219 30 19.3069 29.1775 21.4875 27.7763L24.4081 31.2812C24.8036 31.7559 25.3719 32.0013 25.945 32.0013C27.2794 32.0013 27.9437 30.86 27.9437 30.0006C27.9437 29.5492 27.7917 29.095 27.48 28.7213L24.5687 25.1562ZM14 26C8.48624 26 3.99999 21.5138 3.99999 16C3.99999 10.4862 8.48624 6.05625 14 6.05625C19.5137 6.05625 24 10.5425 24 16C24 18.2631 23.2156 20.33 21.9425 22.0075L17.5375 16.7188C17.1414 16.2439 16.5725 15.9981 15.9994 15.9981C14.67 15.9981 14.0019 17.1369 14.0019 17.9994C14.0019 18.4508 14.1539 18.905 14.4655 19.2787L18.9362 24.6431C17.475 25.4813 15.8 26 14 26Z" fill="#3D3D3D"/>
</g>
<defs>
<clipPath id="clip0_2_237">
<rect width="28" height="32" fill="white"/>
</clipPath>
</defs>
</svg>
