<svg width="24" height="32" viewBox="0 0 24 32" fill="none" xmlns="http://www.w3.org/2000/svg">
<path d="M23.8438 27.2312L13.8438 3.23123C13.5375 2.48624 12.8063 2.00061 12 2.00061C11.1938 2.00061 10.4625 2.48624 10.1563 3.23123L0.156263 27.2312C-0.268549 28.2506 0.212901 29.4218 1.23251 29.8462C2.25626 30.273 3.42501 29.7886 3.84751 28.77L5.83501 24.0006H18.1663L20.1538 28.77C20.4731 29.5375 21.2175 30.0012 22.0006 30.0012C22.2565 30.0012 22.5173 29.9514 22.7694 29.846C23.7875 29.4187 24.2688 28.25 23.8438 27.2312ZM7.44376 20L12 9.19998L16.5 20H7.44376Z" fill="#3D3D3D"/>
</svg>
