<svg width="32" height="32" viewBox="0 0 32 32" fill="none" xmlns="http://www.w3.org/2000/svg">
<path d="M15.25 5.25001L15.9438 6.00001L16.6938 5.25126C18.7875 3.21063 21.6875 2.28188 24.5375 2.75626C28.8438 3.47376 32 7.20001 32 11.5688V11.9313C32 14.525 30.925 17.0063 29.025 18.775L17.7313 29.3188C17.2625 29.7563 16.6438 30 16 30C15.3562 30 14.7375 29.7563 14.2688 29.3188L2.97438 18.775C1.07687 17.0063 0 14.525 0 11.9313V11.5688C0 7.20001 3.1575 3.47376 7.4625 2.75626C10.2563 2.28188 13.2125 3.21063 15.25 5.25001C15.25 5.25063 15.1938 5.25001 15.25 5.25001ZM15.9438 10.2438L13.1313 7.31876C11.775 6.01751 9.85 5.40001 7.95625 5.71501C5.09688 6.19188 3 8.66876 3 11.5688V11.9313C3 13.6938 3.73187 15.3813 5.02125 16.5813L16 26.8313L26.9813 16.5813C28.2688 15.3813 29 13.6938 29 11.9313V11.5688C29 8.66876 26.9 6.19188 24.0438 5.71501C22.15 5.40001 20.225 6.01751 18.8687 7.31876L15.9438 10.2438Z" fill="#3D3D3D"/>
</svg>
