<svg width="32" height="32" viewBox="0 0 32 32" fill="none" xmlns="http://www.w3.org/2000/svg">
<path d="M26 2H22C20.8956 2 20 2.89562 20 4C20 5.10438 20.8956 6 22 6H26C27.1044 6 28 6.89562 28 8V24C28 25.1044 27.1044 26 26 26H22C20.8956 26 20 26.8956 20 28C20 29.1044 20.8956 30 22 30H26C29.3138 30 32 27.3138 32 24V8C32 4.68625 29.3125 2 26 2ZM21.4125 14.5875L13.4125 6.5875C12.6306 5.80563 11.365 5.80688 10.5844 6.5875C9.80313 7.36875 9.80313 8.63437 10.5844 9.41562L15.175 14H2C0.894375 14 0 14.8937 0 16C0 17.1063 0.894375 18 2 18H15.175L10.5887 22.5863C9.8075 23.3675 9.8075 24.6331 10.5887 25.4144C11.37 26.1956 12.6356 26.1956 13.4169 25.4144L21.4169 17.4144C22.1938 16.6313 22.1938 15.3687 21.4125 14.5875Z" fill="#3D3D3D"/>
</svg>
