<svg width="32" height="32" viewBox="0 0 32 32" fill="none" xmlns="http://www.w3.org/2000/svg">
<path d="M31 3V12C31 13.1056 30.1056 14 29 14H20C18.8944 14 18 13.1056 18 12C18 10.8944 18.8944 10 20 10H23.9619C22.0888 7.51875 19.1337 6.01375 15.9869 6.01375C10.4812 6.01375 6 10.4938 6 16C6 21.5062 10.4806 25.9875 15.9875 25.9875C18.1675 25.9875 20.2394 25.2981 21.98 23.9912C22.8687 23.3331 24.1187 23.5069 24.7806 24.3897C25.4425 25.2747 25.265 26.5284 24.3822 27.1903C21.9428 29.0203 19.0472 29.9941 15.9947 29.9941C8.28125 29.9937 2 23.7125 2 16C2 8.2875 8.28125 2.00625 15.9937 2.00625C20.3156 2.00625 24.3688 4.03562 27 7.38875V3C27 1.89437 27.8944 1 29 1C30.1056 1 31 1.89437 31 3Z" fill="#3D3D3D"/>
</svg>
