<svg width="32" height="32" viewBox="0 0 32 32" fill="none" xmlns="http://www.w3.org/2000/svg">
<path d="M30 16C30 23.7125 23.7188 29.9937 16.0063 29.9937C12.9525 29.9937 10.0569 29.02 7.61875 27.19C6.735 26.5281 6.55625 25.2738 7.21931 24.3894C7.88244 23.5088 9.13744 23.3288 10.0193 23.9909C11.7593 25.2978 13.8318 25.9872 16.0124 25.9872C21.5188 25.9875 26 21.5062 26 16C26 10.4938 21.5206 6.0125 16.0125 6.0125C12.8688 6.01375 9.9125 7.51875 8.0375 10H12C13.1044 10 14 10.8944 14 12C14 13.1056 13.1063 14 12 14H3C1.89562 14 1 13.1056 1 12V3C1 1.89437 1.89562 1 3 1C4.10438 1 5 1.89437 5 3V7.38938C7.63125 4.03625 11.6313 2.00688 16.0063 2.00688C23.7188 2.00688 30 8.2875 30 16Z" fill="#3D3D3D"/>
</svg>
