<svg width="32" height="32" viewBox="0 0 32 32" fill="none" xmlns="http://www.w3.org/2000/svg">
<path d="M8 27.9438V13.9438C8 12.8394 7.10438 12 6 12H2C0.895625 12 0 12.8956 0 13.9438V27.8875C0 28.9919 0.895625 29.8312 2 29.8312H6C7.10625 29.9437 8 29.1 8 27.9438ZM32 14.0063C32 12.35 30.6575 11.0075 29 11.0075H19.8438C21.2669 8.63812 22.0012 5.9525 22.0012 5.00625C22 3.5325 20.8438 2 18.9062 2C14.9606 2 17.2587 6.75938 12.1438 10.85L11.125 11.6625C10.3875 12.2563 10.0125 13.125 10.0063 14C10.0048 14.0015 10.0063 14 10.0063 14L10 24C10 24.9438 10.4446 25.8331 11.2 26.3994L13.3337 27.9988C15.0625 29.3 17.1687 30 19.3312 30H23C24.6575 30 26 28.6581 26 27.0012C26 26.7741 25.97 26.5548 25.9221 26.3419C27.125 25.95 28 24.8375 28 23.5C28 22.9283 27.8314 22.3994 27.5538 21.945C28.9437 21.6875 30 20.4688 30 19.0063C30 18.225 29.6942 17.52 29.205 16.9862C30.7625 16.8812 32 15.5938 32 14.0063Z" fill="#3D3D3D"/>
</svg>
