<svg width="32" height="32" viewBox="0 0 32 32" fill="none" xmlns="http://www.w3.org/2000/svg">
<path d="M24 20C22.8956 20 22 20.8956 22 22V28H4V10H10C11.1044 10 12 9.105 12 8C12 6.895 11.1044 6 10 6H4C1.79063 6 0 7.79063 0 10V28C0 30.2088 1.79063 32 4 32H22C24.2094 32 26 30.2088 26 28V22C26 20.8937 25.1063 20 24 20ZM31.4125 0.585437C31.05 0.223625 30.55 0 30 0H20C18.8956 0 18.0562 0.895 18.0562 1.94375C18.0562 3.04813 18.9513 3.8875 20.0556 3.8875H25.2275L11.1687 18.1688C10.3875 18.95 10.3875 20.2162 11.1687 20.9975C11.95 21.7812 13.2188 21.7812 14 21L28 6.825V12C28 13.1044 28.8956 13.9438 29.9438 13.9438C30.9919 13.9438 32 13.1063 32 12V1.94375C32 1.4475 31.775 0.9475 31.4125 0.585437Z" fill="#3D3D3D"/>
</svg>
