<svg width="32" height="32" viewBox="0 0 32 32" fill="none" xmlns="http://www.w3.org/2000/svg">
<path d="M16.0109 8.81249C12.0359 8.81249 8.82968 12.0187 8.82968 15.9937C8.82968 19.9687 12.0359 23.175 16.0109 23.175C19.9859 23.175 23.1922 19.9687 23.1922 15.9937C23.1922 12.0187 19.9859 8.81249 16.0109 8.81249ZM16.0109 20.6625C13.4422 20.6625 11.3422 18.5687 11.3422 15.9937C11.3422 13.4187 13.4359 11.325 16.0109 11.325C18.5859 11.325 20.6797 13.4187 20.6797 15.9937C20.6797 18.5687 18.5797 20.6625 16.0109 20.6625V20.6625ZM25.1609 8.51874C25.1609 9.44999 24.4109 10.1937 23.4859 10.1937C22.5547 10.1937 21.8109 9.44374 21.8109 8.51874C21.8109 7.59374 22.5609 6.84374 23.4859 6.84374C24.4109 6.84374 25.1609 7.59374 25.1609 8.51874ZM29.9172 10.2187C29.8109 7.97499 29.2984 5.9875 27.6547 4.35C26.0172 2.7125 24.0297 2.2 21.7859 2.0875C19.4734 1.95625 12.5422 1.95625 10.2297 2.0875C7.99218 2.19375 6.00469 2.70625 4.36094 4.34375C2.71719 5.98125 2.21094 7.96874 2.09844 10.2125C1.96719 12.525 1.96719 19.4562 2.09844 21.7687C2.20469 24.0125 2.71719 26 4.36094 27.6375C6.00469 29.275 7.98593 29.7875 10.2297 29.9C12.5422 30.0312 19.4734 30.0312 21.7859 29.9C24.0297 29.7937 26.0172 29.2812 27.6547 27.6375C29.2922 26 29.8047 24.0125 29.9172 21.7687C30.0484 19.4562 30.0484 12.5312 29.9172 10.2187V10.2187ZM26.9297 24.25C26.4422 25.475 25.4984 26.4187 24.2672 26.9125C22.4234 27.6437 18.0484 27.475 16.0109 27.475C13.9734 27.475 9.59218 27.6375 7.75468 26.9125C6.52968 26.425 5.58594 25.4812 5.09219 24.25C4.36094 22.4062 4.52969 18.0312 4.52969 15.9937C4.52969 13.9562 4.36719 9.57499 5.09219 7.73749C5.57969 6.51249 6.52343 5.56875 7.75468 5.075C9.59843 4.34375 13.9734 4.5125 16.0109 4.5125C18.0484 4.5125 22.4297 4.35 24.2672 5.075C25.4922 5.5625 26.4359 6.50624 26.9297 7.73749C27.6609 9.58124 27.4922 13.9562 27.4922 15.9937C27.4922 18.0312 27.6609 22.4125 26.9297 24.25Z" fill="#3D3D3D"/>
</svg>
